:SAMPLES-PER-SECOND 30
:FRAME-RANGE 1-1390
:FULLY-SPECIFIED
:DEGREES
565
root  -20.0312 38.2918 -16.4856 -2.70476 79.5153 3.02922
RightUpLeg  -5.45833 3.64355 12.1228
RightLeg  27.7597 0.380836 -0.0145526
RightFoot  -13.3083 -0.244814 -9.01339
RightToes  -2.9104e-010 0 -3.6325e-017
Spine  21.9851 -2.11869 -8.00936
Spine1  -0.115831 -7.65344 8.75039
HEad  -13.5975 -34.7563 9.87427
LeftShoulder1  3.31917 -5.42401 -31.173
LeftArm  94.652 -32.2307 -85.5598
LeftForeArm  -14.5177 -20.0427 -9.44102
LeftHand  -0.0274547 3.24712 0.553245
RightShoulder  11.3566 18.2853 45.5094
RightArm  33.994 6.66668 23.8763
RightForeArm  25.3681 27.6293 4.58395
RightHand  0.836918 5.62823 8.46286
LeftUpLeg  -86.9271 22.7308 -71.7335
LeftLeg  122.441 -3.89058 5.15358
LeftFoot  12.7756 2.26634 -10.9516
LeftToes  5.45371e-012 -1.3743e-010 1.09575e-010
566
root  -19.7201 37.0178 -17.112 -9.33278 82.3632 -2.80726
RightUpLeg  -8.27655 4.60087 13.7326
RightLeg  36.6284 -5.9824 -5.02832
RightFoot  -21.0607 -1.00615 -10.13
RightToes  -2.9104e-010 0 -3.6325e-017
Spine  22.5363 -2.01307 -4.69784
Spine1  0.969468 -6.69573 6.922
HEad  -17.5596 -37.3051 11.1044
LeftShoulder1  3.33169 -5.23964 -32.1039
LeftArm  95.4423 -32.0362 -85.2641
LeftForeArm  -13.2898 -20.1814 -9.18873
LeftHand  -0.037986 2.87995 1.06829
RightShoulder  11.5926 18.5973 45.8051
RightArm  34.5219 6.35262 23.0162
RightForeArm  22.9361 27.5169 4.69076
RightHand  0.852705 5.30336 8.90981
LeftUpLeg  -85.576 23.3842 -67.6003
LeftLeg  123.106 -3.94405 5.0993
LeftFoot  14.7997 2.48423 -11.0675
LeftToes  5.45371e-012 -1.3743e-010 1.09575e-010
567
root  -19.4384 35.8074 -17.7884 -16.2242 83.6193 -8.87068
RightUpLeg  -11.8416 5.16284 13.9701
RightLeg  46.8054 -6.73693 -7.95526
RightFoot  -26.0123 -1.21004 -8.01565
RightToes  -2.9104e-010 0 -3.6325e-017
Spine  21.9538 -1.83452 -2.76646
Spine1  3.62324 -6.01849 5.67388
HEad  -22.1654 -38.0729 13.2237
LeftShoulder1  3.33312 -5.11962 -32.6502
LeftArm  98.9926 -32.2104 -83.2926
LeftForeArm  -16.6196 -21.0542 -8.33152
LeftHand  -0.0567886 2.49285 1.78116
RightShoulder  13.458 21.1919 47.5955
RightArm  36.3495 8.22122 21.8788
RightForeArm  20.0956 25.3936 4.3767
RightHand  0.862356 4.86457 9.42728
LeftUpLeg  -86.7535 24.4916 -64.8716
LeftLeg  123.514 -4.41927 5.67895
LeftFoot  13.4622 1.14168 -5.56601
LeftToes  5.45371e-012 -1.3743e-010 1.09575e-010
568
root  -18.927 35.3073 -18.4129 -57.4401 88.3938 -48.8755
RightUpLeg  -11.6204 0.711206 12.5189
RightLeg  50.3347 -6.98775 -9.31108
RightFoot  -29.666 -1.24265 -6.4475
RightToes  -2.9104e-010 0 -3.6325e-017
Spine  21.5088 -2.66679 -4.02849
Spine1  5.24117 -7.68644 8.4021
HEad  -21.9104 -39.2388 12.8419
LeftShoulder1  3.39047 -5.1873 -33.0085
LeftArm  95.558 -32.9625 -82.1578
LeftForeArm  -14.6654 -20.2763 -9.16273
LeftHand  -0.0802031 2.75612 2.96772
RightShoulder  13.8168 21.5475 48.1749
RightArm  36.16 10.1049 22.4197
RightForeArm  19.4361 23.832 4.0788
RightHand  0.843349 5.06159 9.02794
LeftUpLeg  -85.7687 25.3908 -63.712
LeftLeg  122.047 -7.4543 10.387
LeftFoot  12.1556 -0.661237 2.82048
LeftToes  5.45371e-012 -1.3743e-010 1.09575e-010
569
root  -18.2626 35.3272 -18.977 -167.83 84.7348 -158.296
RightUpLeg  -9.51726 -2.46615 11.7128
RightLeg  50.2875 -8.54683 -11.2222
RightFoot  -30.9499 -0.901498 -3.99747
RightToes  -2.9104e-010 0 -3.6325e-017
Spine  21.1399 -3.35863 -4.197
Spine1  4.38936 -8.85522 10.4606
HEad  -19.4414 -41.4535 11.4944
LeftShoulder1  3.38208 -5.05617 -33.5043
LeftArm  87.8928 -34.6453 -82.9077
LeftForeArm  -8.61353 -18.2978 -11.1244
LeftHand  -0.0518897 3.50558 2.12724
RightShoulder  13.0318 19.7607 48.9702
RightArm  33.4754 11.1581 22.3748
RightForeArm  21.8684 24.8489 4.16508
RightHand  0.87846 6.08411 8.5177
LeftUpLeg  -86.3191 25.4123 -64.4655
LeftLeg  121.804 -6.72816 9.43696
LeftFoot  9.64222 -0.370152 1.68067
LeftToes  5.45371e-012 -1.3743e-010 1.09575e-010
570
root  -17.4542 35.9445 -19.4541 177.998 81.4235 -172.118
RightUpLeg  -5.71633 -4.84989 9.1952
RightLeg  46.3623 -9.14434 -10.4456
RightFoot  -30.3314 -0.668085 -2.76165
RightToes  -2.9104e-010 0 -3.6325e-017
Spine  19.9271 -2.7701 -4.86718
Spine1  2.9475 -8.52703 11.1172
HEad  -15.3122 -42.543 8.32262
LeftShoulder1  3.37585 -5.14245 -33.0414
LeftArm  86.2335 -34.7835 -82.6043
LeftForeArm  -8.26198 -18.0051 -11.4272
LeftHand  -0.0461192 3.67646 1.87421
RightShoulder  13.084 19.8292 49.0212
RightArm  33.3731 10.4894 22.7515
RightForeArm  27.2629 25.3169 3.98005
RightHand  0.699795 5.68427 6.98914
LeftUpLeg  -89.4182 26.2221 -66.9294
LeftLeg  122.933 -2.16781 2.60459
LeftFoot  8.01615 0.530536 -3.39732
LeftToes  5.45371e-012 -1.3743e-010 1.09575e-010
571
root  -16.6211 37.0248 -20.0948 169.694 78.2535 179.803
RightUpLeg  -0.305599 -7.12737 5.59938
RightLeg  39.0761 -9.12896 -8.14206
RightFoot  -27.3386 -0.345507 -1.1392
RightToes  -2.9104e-010 0 -3.6325e-017
Spine  18.4785 -2.36711 -4.78193
Spine1  2.02887 -7.91353 10.2468
HEad  -10.7924 -42.0116 4.4689
LeftShoulder1  3.31412 -5.10958 -32.4747
LeftArm  89.4389 -33.4527 -81.4879
LeftForeArm  -12.9274 -18.9646 -10.6314
LeftHand  -0.0453257 3.39271 1.63691
RightShoulder  13.0446 20.0645 48.375
RightArm  33.5585 10.0243 23.9644
RightForeArm  28.3547 25.6755 3.99919
RightHand  0.748025 5.91657 7.32416
LeftUpLeg  -92.6654 26.1765 -69.1809
LeftLeg  123.746 -0.465888 0.158145
LeftFoot  7.78803 1.18119 -7.28581
LeftToes  5.45371e-012 -1.3743e-010 1.09575e-010
572
root  -15.8812 38.3214 -20.8805 162.356 75.9346 172.167
RightUpLeg  4.50782 -7.81463 1.34983
RightLeg  31.609 -8.34583 -5.75022
RightFoot  -21.5768 0.044626 2.13003
RightToes  -2.9104e-010 0 -3.6325e-017
Spine  17.6828 -1.57504 -4.29709
Spine1  0.228492 -6.59292 8.49286
HEad  -5.18787 -39.9543 -0.114726
LeftShoulder1  3.22387 -4.99202 -31.9435
LeftArm  90.5787 -32.0205 -80.591
LeftForeArm  -15.685 -19.2832 -10.4368
LeftHand  -0.043743 2.87444 1.34223
RightShoulder  12.9144 20.1274 47.7537
RightArm  34.9788 9.50174 24.6998
RightForeArm  27.6676 26.4757 4.20744
RightHand  0.754995 5.54397 7.66962
LeftUpLeg  -96.4131 25.2304 -71.3025
LeftLeg  124.035 -1.90594 2.13339
LeftFoot  9.11195 1.3652 -7.86791
LeftToes  5.45371e-012 -1.3743e-010 1.09575e-010
573
root  -15.3429 39.5653 -21.7136 156.057 74.1162 165.552
RightUpLeg  7.1541 -6.99189 -2.4953
RightLeg  27.3907 -8.12951 -4.78043
RightFoot  -13.8339 0.0625738 7.1871
RightToes  -2.9104e-010 0 -3.6325e-017
Spine  18.0015 -0.679538 -3.59129
Spine1  -1.60661 -5.17847 6.49352
HEad  0.0109475 -35.8755 -4.35425
LeftShoulder1  3.12019 -4.94396 -30.9254
LeftArm  91.2466 -31.8641 -80.8182
LeftForeArm  -17.468 -19.3984 -10.4193
LeftHand  -0.0348495 2.59084 0.886418
RightShoulder  13.2001 20.8853 47.2686
RightArm  36.6394 9.35525 25.1739
RightForeArm  26.0143 26.2685 4.25028
RightHand  0.793909 5.54818 8.07655
LeftUpLeg  -99.4599 24.0733 -72.7359
LeftLeg  123.559 -3.61305 4.5532
LeftFoot  9.20927 1.19866 -6.91745
LeftToes  5.45371e-012 -1.3743e-010 1.09575e-010
574
root  -14.9754 40.6232 -22.5412 155.892 71.1714 164.995
RightUpLeg  6.53218 -6.61343 -4.48537
RightLeg  28.1179 -9.90166 -5.92026
RightFoot  -4.74265 -0.554131 9.03254
RightToes  -2.9104e-010 0 -3.6325e-017
Spine  18.6421 -0.643382 -2.58639
Spine1  -2.31028 -4.81123 5.70688
HEad  3.13664 -30.7442 -7.74086
LeftShoulder1  3.09485 -5.10746 -29.9179
LeftArm  91.4964 -32.5053 -82.207
LeftForeArm  -18.9524 -19.3509 -10.5764
LeftHand  -0.0181938 2.56166 0.179863
RightShoulder  13.4813 21.9308 46.2407
RightArm  37.2299 9.81993 25.4716
RightForeArm  24.9438 25.3956 4.11901
RightHand  0.832202 5.84078 8.24198
LeftUpLeg  -99.6169 22.2429 -72.6192
LeftLeg  121.983 -4.70076 6.435
LeftFoot  7.65712 1.17344 -7.28591
LeftToes  5.45371e-012 -1.3743e-010 1.09575e-010
575
root  -14.6828 41.3535 -23.258 158.208 67.6191 166.712
RightUpLeg  2.60233 -5.97464 -4.37395
RightLeg  32.745 -10.8579 -7.67831
RightFoot  3.19828 -0.0574528 0.621537
RightToes  -2.9104e-010 0 -3.6325e-017
Spine  19.5372 -0.721689 -2.54526
Spine1  -2.33123 -5.03457 6.63045
HEad  4.06058 -25.9571 -9.34494
LeftShoulder1  3.12266 -5.3323 -29.3085
LeftArm  89.6191 -33.5786 -84.5072
LeftForeArm  -15.8897 -18.6085 -11.233
LeftHand  -0.0270642 2.97267 0.542266
RightShoulder  13.2846 22.3277 44.799
RightArm  36.8681 10.7216 25.4302
RightForeArm  24.8031 25.3123 4.10864
RightHand  0.810002 5.95529 7.92673
LeftUpLeg  -98.6691 20.9335 -72.3298
LeftLeg  120.045 -4.70036 6.9396
LeftFoot  7.05849 1.34791 -8.57723
LeftToes  5.45371e-012 -1.3743e-010 1.09575e-010
576
root  -14.3933 41.638 -23.8283 160.42 64.3421 167.772
RightUpLeg  -1.13805 -3.32697 -3.32409
RightLeg  31.7126 -4.08108 -2.96345
RightFoot  2.0378 -0.193977 1.77178
RightToes  -2.9104e-010 0 -3.6325e-017
Spine  20.21 -0.729055 -3.13704
Spine1  -1.92477 -5.35973 7.37202
HEad  4.1096 -21.504 -9.50744
LeftShoulder1  3.16496 -5.50735 -29.0878
LeftArm  87.0016 -34.5227 -85.9776
LeftForeArm  -12.5252 -17.7531 -11.96
LeftHand  -0.0371516 3.17013 1.08417
RightShoulder  13.2162 22.6704 43.9326
RightArm  36.1138 11.3548 24.9955
RightForeArm  25.4186 25.7488 4.16967
RightHand  0.814978 6.12045 7.85344
LeftUpLeg  -98.1722 20.5187 -73.0261
LeftLeg  118.426 -4.24272 6.63765
LeftFoot  7.67262 1.65626 -10.1502
LeftToes  5.45371e-012 -1.3743e-010 1.09575e-010
